<svg xmlns="http://www.w3.org/2000/svg" width="656.895" height="166.347" viewBox="0 0 656.895 166.347">
  <g id="Groupe_1" data-name="Groupe 1" transform="translate(-605 -118)">
    <path id="téléchargement" d="M478.637,55.269c23.5,0,40.562,17.139,40.562,40.761,0,23.7-17.058,40.91-40.562,40.91-23.416,0-40.413-17.208-40.413-40.91,0-23.622,17-40.761,40.413-40.761Zm-.124,60.159c11.285,0,16.424-10.053,16.424-19.4,0-9.27-5.139-19.248-16.424-19.248-11.235,0-16.262,9.668-16.262,19.248,0,9.655,5.027,19.4,16.268,19.4Zm86.35-60.159c23.5,0,40.562,17.139,40.562,40.761,0,23.7-17.058,40.91-40.562,40.91-23.423,0-40.419-17.208-40.419-40.91C524.443,72.408,541.44,55.269,564.862,55.269Zm-.124,60.159c11.279,0,16.424-10.053,16.424-19.4,0-9.27-5.145-19.248-16.424-19.248-11.235,0-16.268,9.668-16.268,19.248C548.469,105.685,553.5,115.427,564.738,115.427ZM666,29h23.9V135.111H666V129a30.708,30.708,0,0,1-20.7,7.944c-20.9,0-34.938-16.38-34.938-40.761,0-24.468,14.041-40.91,34.938-40.91A30.309,30.309,0,0,1,666,63.244V29Zm0,54.734a19.388,19.388,0,0,0-14.725-6.955c-9.9,0-16.561,7.8-16.561,19.4,0,11.509,6.657,19.248,16.561,19.248A19.373,19.373,0,0,0,666,108.466ZM408.568,58.417h23.9v70.834c0,33.482-29.47,37.1-42.142,37.1a62.178,62.178,0,0,1-13-1.244l-1.686-.361-.131-20.356,2.582.523a74.13,74.13,0,0,0,12.249,1.3c5.475,0,18.228-1.605,18.228-16.5v-2.047a30.216,30.216,0,0,1-20.7,8.3c-21.127,0-34.789-15.578-34.789-39.691s13.662-39.691,34.789-39.691a30.04,30.04,0,0,1,20.7,8.013Zm0,26.614c-2.955-3.994-9.083-6.937-14.57-6.937-10.215,0-16.567,6.968-16.567,18.172s6.346,18.184,16.567,18.184c5.394,0,11.528-2.955,14.57-6.955V85.031Z" transform="translate(572 118)" fill="#00dc89" fill-rule="evenodd"/>
    <path id="téléchargement-2" data-name="téléchargement" d="M666,29h23.9V135.111H666V129a30.708,30.708,0,0,1-20.7,7.944c-20.9,0-34.938-16.38-34.938-40.761,0-24.468,14.041-40.91,34.938-40.91A30.309,30.309,0,0,1,666,63.244V29Zm0,54.734a19.388,19.388,0,0,0-14.725-6.955c-9.9,0-16.561,7.8-16.561,19.4,0,11.509,6.657,19.248,16.561,19.248A19.373,19.373,0,0,0,666,108.466Z" transform="translate(227 118)" fill="#00dc89" fill-rule="evenodd"/>
    <path id="téléchargement-3" data-name="téléchargement" d="M225.685,98.014v5.064H171.113a19.1,19.1,0,0,0,18.713,14.184c6.657,0,14.172-2.768,18.29-6.731l11.509,15.615c-7.49,6.862-19.136,10.794-31.946,10.794-24.549,0-41.688-16.822-41.688-40.91,0-23.242,17.394-40.761,40.462-40.761,23.1,0,39.231,17.575,39.231,42.739ZM186.454,74.946c-9.313,0-14.091,6.066-15.659,12.075h31.46c-1.226-5.991-5.873-12.069-15.8-12.069ZM230.942,96.03Zm-109.8,1.817c9.842-3.9,19.97-13.948,19.97-31.044,0-20.841-14.682-34.851-36.518-34.851H92.807V56h7.8c5.848,0,11.758,3.608,11.758,10.5S106.456,77,100.609,77H80.719V62.037L52.432,77.3v58.4H80.719V101.2H92.652l17.17,34.509H142.24l-21.1-37.862ZM0,0,74.592,42.9,0,85.79V.006ZM10.14,39.535h6.825V56.563L47.107,38.739,10.134,17.481V39.535Z" transform="translate(605 118)" fill="#00dc89" fill-rule="evenodd"/>
  </g>
</svg>
